<?xml version="1.0" standalone="no"?>
<!DOCTYPE svg PUBLIC "-//W3C//DTD SVG 20010904//EN"
 "http://www.w3.org/TR/2001/REC-SVG-20010904/DTD/svg10.dtd">
<svg version="1.0" xmlns="http://www.w3.org/2000/svg"
 width="237.000000pt" height="201.000000pt" viewBox="0 0 237.000000 201.000000"
 preserveAspectRatio="xMidYMid meet">
<g transform="translate(0.000000,201.000000) scale(0.100000,-0.100000)"
fill="#d92f0d" stroke="none">
<path d="M637 2003 c-4 -3 -7 -215 -7 -470 l0 -464 25 -24 c35 -35 121 -36
162 -1 27 24 28 27 31 148 2 67 7 126 11 130 4 4 85 -71 181 -167 96 -96 171
-178 166 -182 -4 -4 -251 -10 -549 -13 -532 -5 -542 -5 -545 -25 -4 -28 478
-508 504 -503 17 3 19 17 24 140 4 114 8 140 23 155 16 16 47 18 355 21 427 4
418 6 529 -100 45 -43 98 -85 117 -93 53 -22 418 -22 437 1 11 13 -84 112
-707 735 -395 395 -726 719 -735 719 -8 0 -19 -3 -22 -7z"/>
</g>
</svg>
